<?xml version="1.0" encoding="utf-8"?>
<!-- Generator: Adobe Illustrator 18.0.0, SVG Export Plug-In . SVG Version: 6.00 Build 0)  -->
<!DOCTYPE svg PUBLIC "-//W3C//DTD SVG 1.1//EN" "http://www.w3.org/Graphics/SVG/1.1/DTD/svg11.dtd">
<svg version="1.1" id="Layer_1" xmlns="http://www.w3.org/2000/svg" xmlns:xlink="http://www.w3.org/1999/xlink" x="0px" y="0px"
	 viewBox="0 0 240 240" enable-background="new 0 0 240 240" xml:space="preserve">
<rect y="0" fill="#00FFFF" width="240" height="240"/>
<path fill="#FFFFFF" d="M126.9,48.6c25.3,0,55.3,7.6,55.3,38.4c0,12.3-5.4,24-16.8,29.6c13.8,5.6,20.7,19.2,20.7,33.7
	c0,32.2-23.3,41.2-51.4,41.2H66V48.6H126.9z M92.3,58.1H75.5v123.9h16.8V58.1z M147.4,60.6c-3.9-1.5-8.6-2.6-12.7-2.6h-32.8v54.4
	h31.3c4.7,0,9.5-0.2,14.2-0.6C147.4,111.8,147.4,60.6,147.4,60.6z M147.4,122.6c-4.7-0.4-9.5-0.6-14.2-0.6h-31.3v60h33
	c4.1,0,8.4-0.6,12.5-1.7C147.4,180.2,147.4,122.6,147.4,122.6z M156.9,111.6c11-5,15.8-11.7,15.8-24.2c0-11.7-5.4-19.6-15.8-24.8
	C156.9,62.6,156.9,111.6,156.9,111.6z M156.9,180.2c14.2-5.2,19.6-14.7,19.6-29.6c0-12.7-6.7-24.8-19.6-27.8
	C156.9,122.8,156.9,180.2,156.9,180.2z"/>
</svg>
